# xmcd
#
# Track frame offsets:
#	150
#	12217
#	25722
#	39235
#	52492
#	64735
#	75162
#	84510
#	99957
#	113607
#	124587
#	136300
#	147537
#	159440
#	178410
#	189795
#	201315
#	214270
#	224682
#	236150
#	253982
#	267692
#	280305
#	291567
#
# Disc length: 4028 seconds
#
# Revision: 0
# Processed by: cddbd v1.5.2PL0 Copyright (c) Steve Scherf et al.
# Submitted via: dBpowerAMP V4.0
#
DISCID=720fba18
DTITLE=V - 24 Everlasting golden oldies
DYEAR=2004
DGENRE=Oldies
TTITLE0=The Platters - Smoke gets in your eyes
TTITLE1=Patti Page - Tennessee Waltz
TTITLE2=Ben B. King - Stand by me
TTITLE3=Ray Paterson - Tell Laura I love her\
TTITLE4=Pat Boone - April Love
TTITLE5=Pat Boone - Love letters in the sand
TTITLE6=Wayne Fontana - A groovy kind of love
TTITLE7=The Platters - My prayer
TTITLE8=B.J.Thomas - Raindrops keep falling on my head
TTITLE9=Johnny Tillotson - Poetry in motion
TTITLE10=Pat Boone - Speedy Gonzales
TTITLE11=Paul and Paula - Hey Paula
TTITLE12=Skeeter Davis - The end of the world
TTITLE13=Lobo - I'd love you to want me
TTITLE14=Dean Martin - Send me the pillow you dream on
TTITLE15=The New Skeeters - I'd like to teach the world to sing
TTITLE16=Lynn Anderson - Rose Garden
TTITLE17=Freddy Fender - Before the next teardrops fall
TTITLE18=Christie - Yellow river
TTITLE19=The Marmalade - Reflection of my life
TTITLE20=Tommy Roe - Dizzy
TTITLE21=The Archies - Sugar sugar
TTITLE22=The Fleetwoods - Come softly to me
TTITLE23=Sam the Sham and The Pharoahs - Wooly Bully
EXTD=24 Everlasting golden oldies\n
EXTT0=
EXTT1=
EXTT2=
EXTT3=
EXTT4=
EXTT5=
EXTT6=
EXTT7=
EXTT8=
EXTT9=
EXTT10=
EXTT11=
EXTT12=
EXTT13=
EXTT14=
EXTT15=
EXTT16=
EXTT17=
EXTT18=
EXTT19=
EXTT20=
EXTT21=
EXTT22=
EXTT23=
PLAYORDER=
